<?xml version="1.0" encoding="utf-8"?>
<!-- Generator: Adobe Illustrator 19.2.1, SVG Export Plug-In . SVG Version: 6.00 Build 0)  -->
<svg version="1.1" id="Layer_1" xmlns="http://www.w3.org/2000/svg" xmlns:xlink="http://www.w3.org/1999/xlink" x="0px" y="0px"
	 viewBox="0 0 75 75.2" style="enable-background:new 0 0 75 75.2;" xml:space="preserve">
<style type="text/css">
	.st0{fill:#FFFFFF;}
	.st1{fill:none;}
	.st2{fill:#FF0070;}
</style>
<g id="Final_Logo_Reorderd">
	<g>
		<circle class="st0" cx="37.2" cy="37.8" r="1.3"/>
		<path class="st0" d="M40.8,37.6c0,0,0.1-2.7-2.6-3.4c0,0-1.3-1.1-2-1.7c-0.9-0.6-1.7,0.2-1,0.7l1.7,1.3c0,0-4.1-0.2-4.9-0.2
			s-0.8,1.2,0,1.2c0.8,0,2.4,0,2.4,0s-3.7,2.7-4.3,3.1c-0.8,0.5-0.3,1.5,0.7,0.9c1.1-0.7,2.8-1.9,2.8-1.9s0,3.9,3.8,3.7
			C41.1,41.3,40.8,37.6,40.8,37.6z M37.2,39.9c-1.2,0-2.1-0.9-2.1-2.1c0-1.2,0.9-2.1,2.1-2.1c1.2,0,2.1,0.9,2.1,2.1
			C39.3,38.9,38.4,39.9,37.2,39.9z"/>
	</g>
	<path class="st0" d="M33.1,39.4c0,0-4.3,2.6-2.2,5.2c2.4,0.4,8.8,2.8,8.4,8.3c-0.5-1.8-1.5-6-8.4-7.1c-3-0.6-3-0.3-4.6-1.6
		c-0.2,2.2,1.4,6.9,4.8,7.1c2.4,0.1,1.7,1.4,2.8,2.5c1.6,0.7-7.2-1-7.2-1s-2.4-1.1-1.6,1.6c0.3,1.1-1,2.6-1,2.6s2.5,1.4,4.5,1.3
		c2.2-0.2,2.9-1.4,4.6-1.2s3.6,1.7,6.2,1.6c2.5-0.1,4-1.9,4.7-3.9c1-2.6,3.4-2.6,3.4-2.6l-1.7-0.4c0,0-0.7-2.2-3.1-1
		c-1.2,0.8-1.3,1.3-2,1.5c1.1-3-0.3-5.7-3-7C33.8,43.2,33.2,40,33.1,39.4z M35.4,8.9c0.9,0,0.6-1-1.6-2.1c-1-1-1.3-3.1,3.4,1.8
		c0.9,0.3,1.6-0.3,5.2,0.1c0-1.5-0.1-3.4-0.1-3.4s0.3-0.5,1,0.2c0.3,1.9,0.3,4.4,0.9,4.8c0.7,0.4,3,0.5,3.1,0.2
		c1-2.8-2.7-11.7-10.9-9.6c-1.4,0.4-2.8,1-2.3,1.6s2.3,2.3,3,2.3s1.6-0.2,1.1-0.6c-0.5-0.5-2.3-1.5-2-1.9c0.3-0.4,2.3,0.1,2.6,1
		c0.3,0.9,0.4,2.2-0.1,2.5c-0.5,0.3-1.5,0.7-1.9,0.4c-0.4-0.3-2.1-1.6-2.7-2c-0.6-0.4-0.8-1.2-1.3-1.3c-0.5,0-1-0.2-1.4,0.8
		c-0.4,1-0.1,2.5,0.2,2.8c0.3,0.3-0.8,0.8-1.4,0.4C29.7,6.4,30,4.2,30,4.2s-1.2,1-1.7,1.8c-0.5,1-0.5,0.8-0.7,2.2
		c0.4-0.4,0.8-0.3,1.2-0.3C31.5,8,34.3,9,35.4,8.9z M25.3,63c-0.1-0.1-3.1,0.3-3,0.4c0.1,0.1,0.5,0.1,0.3,0.6
		c-0.7,1.8-4.2,0.4-4.3,0.1s3.4-7.6,4.2-7.5c0.8,0.5,1.7-0.9,1.9-1.3s1-1.9-0.9-2.9c-1.8-1-2.9,0.7-2.9,0.7c-0.4,0.8-0.7,2.1,0,2.5
		c0.7,0.4-2.7,5.6-4.1,7.5c-1.4-0.3-2.1-3.4-2-3.5s0.4-0.1,0.4-0.2c0-0.1-1-2.3-1.1-2.3c-0.1,0-1.6,2.1-1.5,2.2
		c0.1,0.1,0.6,0.3,0.6,0.3s-0.5,4.5,3.2,6.9c3,1.9,7.2,0,7.7-1.3c0.1,0,0.3,0.1,0.4,0.1C24.3,65.1,25.4,63.2,25.3,63z M21.8,55.5
		c-0.6-0.3-0.8-1-0.4-1.6c0.3-0.6,1-0.8,1.6-0.5c0.6,0.3,0.8,1,0.4,1.6C23.1,55.5,22.4,55.8,21.8,55.5z M49.4,68.6
		c-0.1-0.8-5.4-2.7-6-9.5c-1.4,2.1-4,3.7-7.9,5.8c-1.1,1,0.4,6.3,0.8,6.8c0.4,0.5,4.7,2.7,5,2.7C41.7,74.6,49.5,69.5,49.4,68.6z
		 M45.5,69.2l-3.5-3.9c-0.2,0-0.6,0.4-0.7,0.7c-0.1,0.4,3,3.6,3,3.9c0,0.3-3.2,2.5-3.5,2.5c-0.3,0-2.1-1.2-2.4-1.6
		c-0.4-0.4-1.2-2.4-1.2-2.7c0.1-0.3,1.3-1.5,1.5-1.5c0.2-0.1,0.9,1,0.9,1.1c0,0.1-0.5,0.7-0.7,0.7c0.2,0.2,0.6,1.3,0.6,1.4
		c0.2,0.1,1,0.8,1.3,0.9c0.3,0.1,1.5-0.8,1.4-0.9c0-0.2-3-3.4-3-3.7c0.1-0.3,2.5-2.9,2.8-2.9c0.4,0,4.5,5.3,4.5,5.3
		C46.5,68.8,45.9,69.3,45.5,69.2z M47.1,18.4l0.2-4.8c0-0.2,0.7,0.2,0.8,0c0.1-0.1,0.2-1,0.1-1.2c-0.1-0.2-0.9,0.2-0.8,0
		c0-0.4,0-0.8-0.4-0.9l-0.3,0l-0.1,2.2c1.1,1.6,0.1,2.9-0.1,3.1l-0.1,2.1l0.2,0C47,18.9,47.1,18.6,47.1,18.4z M46.6,16.4L46.6,16.4
		c0.8-1.3,0.1-2.2,0.1-2.2c-0.1-0.1-0.2-0.2-0.3-0.3l0.1-2.3c-1-0.1-2.7-0.1-3-0.1c-0.3,0-0.3,0.2-0.5,0.6c0,0.1-0.1,0.5-0.1,1
		c0,0.1,0,0.4,0.1,0.5c0.1,0,1.4,0.1,1.9,0.2l0,0.1c0,0-1.2,0.2-1.3,1.4c-0.1,1.3,1.1,1.7,1.5,1.8c0.6,0,1-0.1,1-0.1l0,0
		c-0.1,0-0.3,0.2-1,0.2c0,0-1.6-0.2-1.6-1.8c0.1-1,1-1.3,1.3-1.4c-0.4,0-1.7-0.1-1.7-0.1c-0.1,0.1-0.4,4.1-0.4,4.7
		c0,0.3,0.2,0.4,0.4,0.5c0.2,0.1,2,0.1,2.9,0.1l0.1-2.3C46.3,16.6,46.5,16.5,46.6,16.4z M45.3,16.5c-0.7,0-1.3-0.6-1.2-1.4
		c0-0.7,0.6-1.3,1.4-1.2c0.7,0,1.3,0.6,1.2,1.4C46.6,16,46,16.5,45.3,16.5z M44.9,13.6L44.9,13.6L44.9,13.6
		C45,13.7,44.9,13.6,44.9,13.6z M28.5,60.8c0,0-1.1,2.6-1.2,3.4c-0.4-0.1-0.7,0.2-0.7,0.8c-0.1,1.3,1,2.5,1,2.5s0.6,2,1,3
		c0.1,0.1,0,0.2,0.3,0.2c0.1,0.4,0.5,1.8,1.3,1.8c0.8,0.1,1-0.3,0.9-0.7c-0.1-0.4-1-1.3-1-1.3s-0.5-2-0.3-2.5c0.4,0,0.7,0.1,1.6-0.8
		c0.7-0.1-0.6,2.7-0.6,2.7s-0.5,0.7-0.2,0.8c0.3,0.1,1.7,0.6,2,0.7c0.3,0.1,0.4-0.4,0.2-0.7c-0.3-0.2-0.9-0.5-0.9-0.8
		c0-0.3,0.7-1.8,1.4-2.6c0.7-0.8,0.6-2.9,0.6-3.2c0-0.1-0.7-0.8-1.3-0.4c-0.6,0.5-0.8,0.6-1,0.9c-0.2,0.2,0.4-1.4,1.8-2.6
		c1.4-1.2,2.8-1.4,2.9-1.4c0.1,0,0.6-0.2,0.9-0.2c0.6-0.1,2.1-0.5,2.7-0.6c0.6-0.1,0.8,0.1,1.1,0c0.3-0.1,0.8-0.7,0.5-0.8
		c-0.2-0.1-1.1-0.1-1.4-0.1c-0.4,0-0.8,0.1-1.2,0.1c-0.2,0.1-1.7,0-2.3,0.3C36,59.9,34.5,60,34,60c-0.5,0,0-1-0.3-1.4
		c-0.3-0.4-1.3-1-2.1,0.4c-0.5,0.9-0.7,0.7-0.8,0.5c0-0.2-1.1-0.6-2.5-0.3c-1.3,0.3-1.8,0.5-2.3,0.5c-0.5,0.1-2.1-0.2-2.3-0.4
		c-0.2-0.2-0.1-0.9-0.1-0.9c0.1,0-0.1-0.3-0.2,0c-0.1,0.3,0,0.5,0,0.5s-1.4,0.2-1.7,0c-0.4-0.2,0,1.2,1,1.1c0.9,0,0.8,0.1,1.1,0.2
		c0.3,0.1,2.3,0.9,2.6,1C26.7,61.2,27.1,61.1,28.5,60.8z M29.1,17.9c0.2-0.2,8.9,0.7,9.3,1.2c0.4,0.5-3.9,14.3-4.2,14.6
		c-0.1,0.1-1.8-0.1-1.9-0.3c-0.1-0.2,3.7-12.6,3.5-13.1c-0.2-0.5-6.7-0.7-6.9-0.9C28.7,19.1,29.1,17.9,29.1,17.9z M25.6,49.7
		c0.3-2.5-1.2-3.6,0.3-7c1.3,0.9,2,1.1,3.2,1.4c-0.2-0.9-0.3-1.6-0.3-3.1c0-1.5,0.2-3.7,1.2-4.4c-3,1.7-5.8,2.7-5.8,2.7
		s-5.6,1.2-7,4.1c-1.3,2.9,0,4.3,0.9,5.1C18.1,48.4,25.3,52.5,25.6,49.7z M20.7,62.9c0,0-0.1-0.4-0.4-0.6c-0.5-0.2-0.7,0.2-0.9,0.5
		c-0.1,0.2-0.1,0.6,0.3,0.7c0.4,0.2,0.5,0,0.7,0c0.1,0.2,0.3,0.5,0.6,0.6c0.3,0.1,0.7,0,0.9-0.4c0.2-0.4,0-0.8-0.3-1
		C21.2,62.7,20.9,62.8,20.7,62.9z M19.8,62.9c0.1-0.2,0.3-0.3,0.5-0.2c0.2,0.1,0.3,0.3,0.2,0.5c-0.1,0.2-0.3,0.3-0.5,0.2
		C19.8,63.3,19.7,63.1,19.8,62.9z M21.6,63.6c-0.1,0.2-0.3,0.3-0.5,0.2c-0.2-0.1-0.3-0.3-0.2-0.5c0.1-0.2,0.3-0.3,0.5-0.2
		C21.6,63.2,21.7,63.5,21.6,63.6z M22.4,61.2c-0.8-0.3-0.8-0.4-1.2-0.5c-0.6-0.2-0.7,0.2-0.9,0.5c-0.1,0.2-0.1,0.6,0.3,0.8
		c0.2,0.1,0.7,0.2,0.9-0.4c0.1-0.2,0.1-0.2,0.1-0.4c0.1,0,0.3,0.2,0.5,0.3c0.2,0.1-0.1,0.8,0,0.9c0.1,0.1,0.2,0.3,0.3,0.3
		C22.4,62.7,22.7,61.3,22.4,61.2z M20.7,61.2c0.1-0.2,0.3-0.3,0.5-0.2c0.2,0.1,0.3,0.3,0.2,0.5s-0.3,0.3-0.5,0.2
		C20.6,61.6,20.6,61.4,20.7,61.2z M42.7,37.5c0,0-0.5,4-4.3,5.3C38.3,44.2,48.6,53,51.9,53.1c0.7-1.7,1.8-2.5,5-4.8
		C53.2,48.3,43.6,42.7,42.7,37.5z M43.5,36.8l-0.1-0.1c-0.1-0.1-6.6-5.6-6.7-5.6c-0.3-0.2-0.6,0.1-0.3,0.4c0,0,5.8,4.9,6.7,5.6l0,0
		l0,0C43.2,36.9,43.3,36.8,43.5,36.8z M51.3,40.8c-1.7-1.2-3.7-2.5-5.3-3.2l0.2,0.1c0.1,0.1,1.6,1.4,1.6,1.5c0.1,0,0.2,0.1,0.2,0.1
		c0.1,0.1,0.1,0.2,0.1,0.3c-0.1,0.1-0.2,0-0.3,0c-0.1-0.1-0.1-0.1-0.1-0.2c-0.2-0.2-0.9-0.6-1.8-1.3L44.6,37c-0.4-0.1-0.8-0.2-1-0.2
		c0.4,0.4,1.4,1.3,1.5,1.4c0.1,0,0.2,0.1,0.2,0.1c0.1,0.1,0.1,0.2,0.1,0.3c-0.1,0.1-0.2,0-0.3,0c-0.1-0.1-0.1-0.1-0.1-0.2
		c-0.2-0.2-0.9-0.6-1.8-1.3c-0.5,0.9,3.2,5.4,5.8,7.2c2.6,1.8,7.7,4.3,8.6,3.5C58.4,46.8,54.6,43.2,51.3,40.8z M39.2,32
		c-0.3-0.2-0.5,0.1-0.3,0.4c0,0,3.6,3,5.7,4.6c0.4,0.1,0.9,0.3,1.4,0.6C44.9,36.7,39.3,32.1,39.2,32z M44.9,38.3
		c-0.1,0.1,0,0.3,0.1,0.3"/>
	<path class="st0" d="M46.5,20.1c0,0-4.7-0.3-5.3-0.3c-0.6,0.1-0.5,0.6-0.4,0.9C41,21,43,25,43,25l-0.2,3.2c0,0-0.2,0-0.4,0
		c-0.2-0.1-0.3,0.4,0,0.5c0.3,0,1.7,0.2,1.7,0.2s0.5-0.4,0.1-0.5c-0.5-0.1-0.4,0-0.4,0l0.4-3.3c0,0,2.3-3.6,2.6-4
		C47,20.7,47.1,20.2,46.5,20.1z"/>
	<g>
		<path class="st0" d="M42.3,9.7c-0.1-0.2-3.1-0.6-4.7,0.3c0,0-0.5,3.7-0.6,3.8s0,0.1-0.1,0c0-0.1,0.4-2.7,0.5-3.8
			c-2.2-0.6-5.1-0.6-5.2-0.5c-0.1,0.1,0,4.5,0.2,7.3c2.5-0.1,3,0,3.7,1c0.3,0.5,0.7,0.1,0.7,0.1c1.1-1.3,4.5,0.2,4.7,0.1
			C41.8,18,42.4,9.9,42.3,9.7z M32.6,17.5c0,0-0.2-0.3-0.1-0.5c2.4-0.1,2.7-0.1,3.7,1C35.2,17.8,32.6,17.5,32.6,17.5z M36.2,18
			c-1.9-0.5-1.9-0.3-3.6-0.5"/>
		<path class="st0" d="M41.6,19c0,0,0.1-0.5,0-0.7c-2.3-0.7-4-1-4.7-0.1C38,18.2,41.6,19,41.6,19z"/>
	</g>
	<path class="st0" d="M63.9,53.7c-0.5-1.8-1.3-4.2-1.9-6.7c-0.5-2.5-3.9-5.3-4.9-6c-1-0.6-4.6-1.9-8-2.4c4.8,2.1,9.7,7,9.7,8.6
		l-3.3,3.2c6.6-0.3,6.5,3.7,6.5,3.7S63.7,53.7,63.9,53.7z M19.7,56c-0.3-0.3-4.7-3-4.7-3s-0.3-0.1-0.7,0c-0.4,0.1-1.6,2.8-2.1,3.6
		c0,0-0.4-1-1.4-0.3c-0.9,0.6-0.5,1.3-0.1,1.6c0.4,0.3,1.2,0.3,1.4,0c0.2-0.2,1.7-2.7,2.5-4.2c0-0.1,3.2,1.9,4.3,2.5l-0.2,0.3
		c-0.2-0.2-1-0.7-1.3-0.7c0,0-0.3,0.3-0.4,0.5c0,0.2,1.2,0.7,1.3,0.7l0.2-0.1c-0.5,0.9-1.1,2.2-1.4,2.6c0,0-0.5-0.9-1.4-0.2
		c-0.9,0.7-0.4,1.5,0,1.9c0.4,0.3,1.2,0.1,1.4-0.2c0.3-0.3,2.8-4.9,2.8-4.9S19.8,56.1,19.7,56z M14.7,54.5c-0.6,0.9-0.5,2-0.3,2.5
		c0.4,0.8,0.5,1.1,1.2,1.7c0,0,0.2-0.2,0.6-0.3c-0.1-0.1-1.2-1.8-1.1-2.9c0.4,1.5,1.2,2.7,1.3,2.9c0.1,0,0.3,0,0.5,0
		C17.8,58.6,16.7,55.7,14.7,54.5z M36.4,29.6c0.4,0.2,1,0.5,1.8,0.7c-0.5-1.2-1-2.3-1-3.2C36.9,27.9,36.6,28.8,36.4,29.6z
		 M40.4,23.4c0.2,0.7,0,1.1-0.3,1c-0.4-0.6,0.3-1.3,0.3-2.5c0.1-0.7-0.6-1.5-1.4-1.9c-0.1,0.3-0.1,0.6-0.2,1c0,0.4-0.1,0.8-0.3,1.1
		c-0.3,1.1-0.6,2.3-1,3.6c0.2-0.2,0.4-0.4,0.7-0.5c-0.3,1.2-0.7,1,0.8,2.9c1.6,1.9-0.3,2.9-0.5,3.1C40,30.6,43.5,27,40.4,23.4z
		 M61.8,61.3c-0.4,0.8-0.8,1.7-1.4,2.5c0.5,0.4,1.2,0.8,2.4,1.1C62.1,63.5,61.7,62.3,61.8,61.3z M65.1,58.1c0.2,0.7,0,1.1-0.3,1
		c-0.4-0.6,0.3-1.3,0.3-2.5c0.2-1.1-1.6-2.2-2.4-2.2c1.2,1,0.9,2.4,0.1,2.9c0,1-0.2,2.1-0.6,3.2c0.2-0.2,0.4-0.4,0.7-0.6
		c-0.3,1.2-0.7,1,0.8,2.8c1.6,1.9-0.9,3.2-1.1,3.5C64.1,65.5,69.3,61.4,65.1,58.1z M32.2,30.4c0,0,0.3-4-0.9-6c-1.2-2-1.4-2.2-1.3-4
		c0.5,0.9,1,2.7,1.8,3.1c0.8,0.4,0.7-2.2,0.3-2.9c1.6,0,2.2,1.5,1.9,3.5C33.6,26.2,32.2,30.4,32.2,30.4z"/>
	<path class="st0" d="M43.5,29.5c-0.8-0.3-1.6-0.3-1.6-0.3s-0.1,0.3-0.3,0.6c0.3,0.2,0.9,0.6,1.1,1c0.3,0.5-0.2,1.7-1.1,1.5
		c-0.6-0.2-1-0.8-1.2-1.2c-0.2,0.2-0.5,0.3-0.8,0.4c3.6,3.5,6,4.9,8.9,6.9C42,33.6,43.3,34.1,43.5,29.5z M31.8,17.5
		c-0.2-2.9-0.4-8-0.3-8.1c0.1-0.1,0.4-0.1,1-0.2c0,0,0.1-0.1,0-0.2c-0.7-0.1-2.1-0.2-2.2-0.2c-0.3,0.3-0.5,1.4-0.7,1.4
		c-0.1-0.2-0.1-1.5-0.2-1.5c-0.3-0.1-0.7-0.1-1-0.1c-0.5,0-0.8,0.5-0.9,0.5c-0.1,0.9-0.2,2-0.1,3.1c0.1,1.8,0.8,3.8,1.5,5.2
		c0.3,0,0.6-0.1,1.5,0c0.3-0.7,0.4-2,0.5-2.8c0,0.8,0.1,2.2,0.3,2.9C31.4,17.4,31.8,17.5,31.8,17.5z"/>
	<path class="st0" d="M31.8,17.5c-0.2-2.9-0.4-8-0.3-8.1c0.1-0.1,0.4-0.1,1-0.2c0,0,0.1-0.1,0-0.2c-0.7-0.1-2.1-0.2-2.2-0.2
		c-0.3,0.3-0.5,1.4-0.7,1.4c-0.1-0.2-0.1-1.5-0.2-1.5c-0.3-0.1-0.7-0.1-1-0.1c-0.5,0-0.8,0.5-0.9,0.5c-0.1,0.9-0.2,2-0.1,3.1
		c0.1,1.8,0.8,3.8,1.5,5.2c0.3,0,0.6-0.1,1.5,0c0.3-0.7,0.4-2,0.5-2.8c0,0.8,0.1,2.2,0.3,2.9C31.4,17.4,31.8,17.5,31.8,17.5z"/>
	<path class="st0" d="M31.8,17.5c-0.2-2.9-0.4-8-0.3-8.1c0.1-0.1,0.4-0.1,1-0.2c0,0,0.1-0.1,0-0.2c-0.7-0.1-2.1-0.2-2.2-0.2
		c-0.3,0.3-0.5,1.4-0.7,1.4c-0.1-0.2-0.1-1.5-0.2-1.5c-0.3-0.1-0.7-0.1-1-0.1c-0.5,0-0.8,0.5-0.9,0.5c-0.1,0.9-0.2,2-0.1,3.1
		c0.1,1.8,0.8,3.8,1.5,5.2c0.3,0,0.6-0.1,1.5,0c0.3-0.7,0.4-2,0.5-2.8c0,0.8,0.1,2.2,0.3,2.9C31.4,17.4,31.8,17.5,31.8,17.5z"/>
	<path class="st1" d="M33.7,9.6L33.7,9.6l-0.5-0.1l0,0.1C33.1,9.5,33.7,9.6,33.7,9.6z M29.8,18.5l0.2,0.1l0,0L29.8,18.5z"/>
	<path class="st0" d="M22.2,51.1c-0.3-0.1-3.4-1.1-5-2.1c-2.3-1.4-0.8-6.3-0.8-6.3v-0.1c-2,0.9-3,0.5-4.5,4.2c0.7,0.2,2.3,0.7,2.7,1
		c0.6,0.4,0.7,2.1-0.3,2.7c-0.8,0.5-2.6-0.1-3-0.3c-0.1,1.8,0.2,3.1-0.3,4c-0.7,1.4-0.5,1.2-0.5,1.2s1.1-0.8,1.6,0.2
		c0.7-1.6,0.8-2.4,1.3-3c0.5-0.6,1.2-0.8,1.6-0.7c0.4,0.1,2.2,1.2,4.3,2.5c0.1-1.3,0.4-1.8,0.8-2.2c0.4-0.5,1-0.7,2.2-0.6
		C22.7,51.5,22.5,51.3,22.2,51.1z M12.1,59.5c0,0-0.5-0.2-0.6-0.3c0,0,0.1-0.3,0.3-0.6l-0.2-0.1c-0.1,0.2-0.2,0.3-0.2,0.3
		c-0.1,0.1-0.2,0.1-0.3,0.2c1.1,2,0.2,5-0.8,5.5c1.2-1.3,0.9-3.9,0.9-3.9c-0.1-0.6-0.3-1-0.7-1.5c-0.2,0-0.4-0.1-0.5-0.2
		c-0.2-0.1-0.3-0.3-0.4-0.6c-1.3,0.9-1.5,2.3-1.2,4c0.3,1.8,1.6,3.5,3.3,5.2c-0.2-0.6-0.4-1.1,0.2-2.1c0.3-0.5,0.7-1.1,1-1.8
		C11.9,61.5,12.1,59.5,12.1,59.5z"/>
	<circle class="st0" cx="45.3" cy="15.2" r="1.1"/>
</g>
<path class="st2" d="M52.3,56.3c0,0-2.8-5.5-6.4-2.7c-4.2,5.5,1.8,12.2,8.2,16C61,64.4,64.8,56,59.3,52.1
	C57,50.4,51.1,52.9,52.3,56.3z"/>
</svg>
