<?xml version="1.0" encoding="utf-8"?>
<!-- Generator: Adobe Illustrator 19.2.1, SVG Export Plug-In . SVG Version: 6.00 Build 0)  -->
<svg version="1.1" id="Mouse" xmlns="http://www.w3.org/2000/svg" xmlns:xlink="http://www.w3.org/1999/xlink" x="0px" y="0px"
	 viewBox="0 0 339.3 516.5" style="enable-background:new 0 0 339.3 516.5;" xml:space="preserve">
<style type="text/css">
	.st0{fill:#FFFFFF;}
</style>
<path class="st0" d="M292.8,53.6C265,21,222.7,4.5,167,4.5S69,21,41.2,53.6C13.3,86.4,9.1,124.8,9.1,144.8v231.4
	c0,20,4.2,58.4,32.1,91.2C69,500,111.3,516.5,167,516.5s98-16.5,125.8-49.1c27.9-32.8,32.1-71.2,32.1-91.2V144.8
	C324.9,124.8,320.7,86.4,292.8,53.6z M293,363.6c0,18.4-6.1,110.3-126,110.3S41,382,41,363.6V157.4c0-18,5.8-106.5,118.6-110.2v44.1
	c-14.9,3.4-26,16.7-26,32.5v40c0,15.9,11.1,29.2,26,32.5v78.3c0,4.1,3.3,7.4,7.4,7.4s7.4-3.3,7.4-7.4v-78.3
	c14.9-3.4,26-16.7,26-32.5v-40c0-15.9-11.1-29.2-26-32.5V47.2C287.2,50.9,293,139.4,293,157.4V363.6z"/>
</svg>
